<svg id="Layer_1" data-name="Layer 1" xmlns="http://www.w3.org/2000/svg" viewBox="0 0 292.58 384.12"><defs><style>.cls-1{fill:#77cb7d;}.cls-2{fill:#52bc7e;}.cls-3{fill:#97da7c;}.cls-4{fill:#f6dbb2;}.cls-5{fill:#fcdf77;}.cls-6{fill:#65c87e;}.cls-7{fill:#fee9c6;}.cls-8{fill:#77cb7c;}.cls-9{fill:#fdcf5b;}.cls-10{fill:#fddf77;}.cls-11{fill:#fbcf5b;}.cls-12{fill:#fecf5b;}</style></defs><title>icon</title><path class="cls-1" d="M71.59.79c1.32-.06,2.65-.18,4-.18q123.52,0,247.06,0c1.33,0,2.65.11,4,.17,0,2.33,0,4.67,0,7q0,148.16,0,296.31c0,11.72-7.37,19.47-18.67,19.47q-118.68,0-237.35,0C71.26,216,69.25,108.37,71.59.79Zm23.24,28.8c-2,1.28-1.22,3.31-1.22,5q-.06,130.48,0,261c0,1.75-.63,3.73,1.13,5.13,2.1,3.77,5.27,4.85,9.56,4.85q100.5-.18,201-.09c7.43,0,9.26-1.76,9.26-9q0-131.25,0-262.49c0-7.18-2-9.22-9.19-9.22q-100.76,0-201.5-.07C99.73,24.67,96.78,26,94.83,29.59Z" transform="translate(-46.21 -0.44)"/><path class="cls-2" d="M70.55,323.55q118.68,0,237.35,0c11.3,0,18.67-7.75,18.67-19.47q0-148.15,0-296.31c0-2.33,0-4.67,0-7a56.9,56.9,0,0,1,6-.13c3.88.29,6.11,2.34,6.14,6.41,0,1,0,2,0,3q0,158.39.05,316.77c0,4.67-.74,8.33-6.16,9.08l-12.08.06c-20.32-.08-40.63-.2-60.95-.21q-93.2,0-186.38,0c-10.13,0-14.68,4.55-14.72,14.6,0,2,0,4,0,6,0,12.12,4,16.11,16.22,16.11H314.57c2,0,4-.15,6-.23l12.09.12c4,.61,6.58,2.77,6,7.05s-4,5.18-7.83,5.18q-58.74,0-117.49,0H72.8c-16.56,0-26.42-9.91-26.38-26.44,0-5.49.15-11,.23-16.49C51.22,331.09,58.4,324,70.55,323.55Z" transform="translate(-46.21 -0.44)"/><path class="cls-3" d="M70.55,323.55c-12.15.49-19.33,7.54-23.9,18.06-.07-2.16-.19-4.32-.19-6.48,0-103.66.24-207.32-.25-311C46.12,6.2,56.36-1.34,71.59.79,69.25,108.37,71.26,216,70.55,323.55Z" transform="translate(-46.21 -0.44)"/><path class="cls-4" d="M332.64,372.33l-12.09-.12c.58-10.42-.72-11.74-11.74-11.72q-113.67.22-227.33.07c-7,0-11.08-2.51-10.88-6.73.18-4,4.08-6.25,10.86-6.25H310.28c1.34,0,2.67,0,4,0,4-.07,6.13-2.11,6.28-6.12.07-1.83,0-3.66,0-5.49l12.08-.06Q332.65,354.13,332.64,372.33Z" transform="translate(-46.21 -0.44)"/><path class="cls-5" d="M94.83,29.59c2-3.58,4.9-4.92,9-4.92q100.76.12,201.5.07c7.2,0,9.19,2,9.19,9.22q0,131.25,0,262.49c0,7.25-1.83,9-9.26,9q-100.48,0-201,.09c-4.29,0-7.46-1.08-9.56-4.85,0-1.84,0-3.67,0-5.5Q94.79,162.4,94.83,29.59Zm194.76,168q0-32.51,0-65l.21-1.1c.94-.93.77-2.14.77-3.29,0-24.78-.07-49.57.08-74.36,0-3.77-1.58-4.32-4.78-4.31-24.12.1-48.24.05-72.37.06-1.3,0-2.68-.29-3.82.69a15.46,15.46,0,0,0-10.14.1c-1.42-1.28-3.17-.77-4.78-.77-23.32,0-46.64.07-70-.12-4.18,0-5.34,1.2-5.31,5.34.19,23.32.08,46.64.11,70,0,1.61-.51,3.36.81,4.77a16.42,16.42,0,0,0-.86,6.37q0,29.16,0,58.33a16.64,16.64,0,0,0,.84,6.38,3.49,3.49,0,0,0-.81,2.77c0,24.44.05,48.88,0,73.32,0,3.15,1.21,3.93,4.13,3.92,25.43-.12,50.86-.12,76.3-.16l9.38,0c25.59,0,51.18,0,76.77.17,4.08,0,4.53-1.69,4.52-5.07-.11-23.76-.05-47.52-.08-71.29,0-1.6.53-3.36-.88-4.72C289.64,198.92,289.61,198.25,289.59,197.58Z" transform="translate(-46.21 -0.44)"/><path class="cls-6" d="M94.83,29.59q0,132.81-.07,265.61c0,1.83,0,3.66,0,5.5-1.76-1.4-1.13-3.38-1.13-5.13q0-130.47,0-261C93.61,32.9,92.82,30.87,94.83,29.59Z" transform="translate(-46.21 -0.44)"/><path class="cls-7" d="M320.55,336c0,1.83.08,3.66,0,5.49-.15,4-2.27,6.05-6.28,6.12-1.33,0-2.66,0-4,0H81.46c-6.78,0-10.68,2.25-10.86,6.25-.2,4.22,3.87,6.73,10.88,6.73q113.67,0,227.33-.07c11,0,12.32,1.3,11.74,11.72-2,.08-4,.23-6,.23H74.72c-12.2,0-16.21-4-16.22-16.11,0-2,0-4,0-6,0-10,4.59-14.59,14.72-14.6q93.18,0,186.38,0C279.92,335.76,300.23,335.88,320.55,336Z" transform="translate(-46.21 -0.44)"/><path class="cls-8" d="M120.38,200.62a16.64,16.64,0,0,1-.84-6.38q0-29.16,0-58.33a16.42,16.42,0,0,1,.86-6.37c3.13-5.22,7.64-7.33,13.78-7.09,8.11.31,9.47-1.33,9.48-9.56,0-4.65,0-9.31,0-14,.18-14.62,10.72-25.17,25.24-25.27,4.33,0,8.65,0,13,0,9.63,0,10.69-1,10.66-10.46,0-5.65,2-10,7-12.83a15.46,15.46,0,0,1,10.14-.1c5.2,2.85,7.33,7.15,7.15,13.13-.26,8.7,1.49,10.25,10,10.26,4.82,0,9.64-.06,14.46,0A24.37,24.37,0,0,1,265.61,98.1c.07,4.66,0,9.31,0,14,0,9.09,1.31,10.56,10.26,10.42,6.78-.12,11.54,2.47,13.89,9l-.21,1.1c-1.41,1.13-1,2.72-1,4.16q0,28.35,0,56.69c0,1.44-.41,3,1,4.16,0,.67.05,1.34.07,2-3,6.52-8.24,8.44-15.06,8.17s-8.93,2.25-9,8.9c0,5.15,0,10.31,0,15.46a24.23,24.23,0,0,1-24.36,24.42c-5,.06-10,0-15,0-7.37,0-9.83,2.12-9.44,9.41.35,6.56-2,11.27-7.51,14.53l-9.38,0c-5.85-3.61-7.91-8.82-7.47-15.63.39-6.2-2-8.22-8.33-8.27-5.32,0-10.63.05-15.94,0a24.15,24.15,0,0,1-23.71-19c-1.58-6.57-.67-13.22-.8-19.84-.17-8.61-1.45-10.16-10.17-10C127.65,207.85,123.17,205.93,120.38,200.62Zm90.23-90c0-4,0-7.93.1-11.89S208.84,92,205.06,92s-6.41,2.48-6.43,6.7c0,4,.09,7.92.14,11.88-8,4.5-13.05,10.72-12.24,20.45.17,2-1,2.92-2.43,4-22.39,15.94-19.78,47.15,0,60.23,1.49,1,2.63,2,2.44,3.95-1,9.8,4.24,15.93,12.22,20.38,0,4-.21,8-.1,12,.12,4.27,2.83,7.27,6.28,6.82,3.79-.5,5.9-2.72,5.79-6.79s-.06-8-.08-12c7.84-4.32,13-10.23,12.16-19.91-.24-2.55,1.76-3.72,3.52-5,20.15-15,20.11-43.85-.11-59-1.67-1.25-3-2.36-3-4.75C223.49,121.42,218.85,114.87,210.61,110.6Z" transform="translate(-46.21 -0.44)"/><path class="cls-9" d="M289.79,131.47c-2.35-6.51-7.11-9.1-13.89-9-8.95.14-10.26-1.33-10.26-10.42,0-4.66,0-9.31,0-14a24.37,24.37,0,0,0-24.37-24.44c-4.82-.07-9.64,0-14.46,0-8.47,0-10.22-1.56-10-10.26.18-6-1.95-10.28-7.15-13.13,1.14-1,2.52-.69,3.82-.69,24.13,0,48.25,0,72.37-.06,3.2,0,4.8.54,4.78,4.31-.15,24.79-.08,49.58-.08,74.36C290.56,129.33,290.73,130.54,289.79,131.47Z" transform="translate(-46.21 -0.44)"/><path class="cls-9" d="M209.33,280.5c5.56-3.26,7.86-8,7.51-14.53-.39-7.29,2.07-9.39,9.44-9.41,5,0,10,0,15,0a24.23,24.23,0,0,0,24.36-24.42c.07-5.15,0-10.31,0-15.46,0-6.65,2.29-9.17,9-8.9s12.1-1.65,15.06-8.17c1.41,1.36.88,3.12.88,4.72,0,23.77,0,47.53.08,71.29,0,3.38-.44,5.1-4.52,5.07C260.51,280.47,234.92,280.53,209.33,280.5Z" transform="translate(-46.21 -0.44)"/><path class="cls-9" d="M199.53,50.36c-5,2.82-7,7.18-7,12.83,0,9.51-1,10.45-10.66,10.46-4.33,0-8.65,0-13,0-14.52.1-25.06,10.65-25.24,25.27,0,4.66,0,9.32,0,14,0,8.23-1.37,9.87-9.48,9.56-6.14-.24-10.65,1.87-13.78,7.09-1.32-1.41-.81-3.16-.81-4.77,0-23.32.08-46.64-.11-70,0-4.14,1.13-5.37,5.31-5.34,23.32.19,46.64.08,70,.12C196.36,49.59,198.11,49.08,199.53,50.36Z" transform="translate(-46.21 -0.44)"/><path class="cls-9" d="M120.38,200.62c2.79,5.31,7.27,7.23,13.15,7.11,8.72-.17,10,1.38,10.17,10,.13,6.62-.78,13.27.8,19.84a24.15,24.15,0,0,0,23.71,19c5.31.08,10.62,0,15.94,0,6.33.05,8.72,2.07,8.33,8.27-.44,6.81,1.62,12,7.47,15.63-25.44,0-50.87,0-76.3.16-2.92,0-4.14-.77-4.13-3.92.1-24.44,0-48.88,0-73.32A3.49,3.49,0,0,1,120.38,200.62Z" transform="translate(-46.21 -0.44)"/><path class="cls-6" d="M289.59,197.58c-1.41-1.13-1-2.72-1-4.16q0-28.33,0-56.69c0-1.44-.42-3,1-4.16Q289.58,165.08,289.59,197.58Z" transform="translate(-46.21 -0.44)"/><path class="cls-10" d="M198.75,219.55c-8-4.45-13.18-10.58-12.22-20.38.19-2-.95-3-2.44-3.95-19.77-13.08-22.38-44.29,0-60.23,1.44-1,2.6-2,2.43-4-.81-9.73,4.28-15.95,12.24-20.45h11.84c8.24,4.27,12.88,10.82,12.65,20.31-.06,2.39,1.28,3.5,3,4.75,20.22,15.13,20.26,44,.11,59-1.76,1.31-3.76,2.48-3.52,5,.87,9.68-4.32,15.59-12.16,19.91Zm23.84-54.07c1-9.48-6.51-18.51-18.09-18.82-9.23-.26-17.92,9-17.92,18.39a18.36,18.36,0,0,0,18.67,18.51C214.84,183.44,222.55,175.4,222.59,165.48Z" transform="translate(-46.21 -0.44)"/><path class="cls-11" d="M198.75,219.55l11.89,0c0,4,0,8,.08,12s-2,6.29-5.79,6.79c-3.45.45-6.16-2.55-6.28-6.82C198.54,227.54,198.71,223.54,198.75,219.55Z" transform="translate(-46.21 -0.44)"/><path class="cls-11" d="M210.61,110.6H198.77c-.05-4-.15-7.92-.14-11.88,0-4.22,2.58-6.71,6.43-6.7s5.77,2.7,5.65,6.7S210.64,106.63,210.61,110.6Z" transform="translate(-46.21 -0.44)"/><path class="cls-12" d="M222.59,165.48c0,9.92-7.75,18-17.34,18.08a18.36,18.36,0,0,1-18.67-18.51c0-9.44,8.69-18.65,17.92-18.39C216.08,147,223.58,156,222.59,165.48Z" transform="translate(-46.21 -0.44)"/></svg>